<mxfile host="app.diagrams.net" modified="2023-12-10T02:08:43.115Z" agent="Mozilla/5.0 (Windows NT 10.0; Win64; x64) AppleWebKit/537.36 (KHTML, like Gecko) Chrome/119.0.0.0 Safari/537.36" etag="pnYEDeGwIo4vdrjgkWGi" version="22.1.7" type="github" pages="2">
  <diagram name="Level 1" id="56z3e2i1u05PQJuNnGye">
    <mxGraphModel dx="1696" dy="819" grid="1" gridSize="10" guides="1" tooltips="1" connect="1" arrows="1" fold="1" page="1" pageScale="1" pageWidth="827" pageHeight="1169" math="0" shadow="0">
      <root>
        <mxCell id="0" />
        <mxCell id="1" parent="0" />
        <mxCell id="XKTfuCK65he9GiqITnCT-13" value="" style="endArrow=none;html=1;rounded=0;exitX=0;exitY=1;exitDx=0;exitDy=0;entryX=0.5;entryY=0.5;entryDx=0;entryDy=0;entryPerimeter=0;fontStyle=1;" parent="1" source="XKTfuCK65he9GiqITnCT-9" target="_0icodKQgSt8zocZG-0z-7" edge="1">
          <mxGeometry width="50" height="50" relative="1" as="geometry">
            <mxPoint x="190" y="440" as="sourcePoint" />
            <mxPoint x="-455" y="463" as="targetPoint" />
          </mxGeometry>
        </mxCell>
        <mxCell id="uuZffBunbKt74AH5PHFx-19" value="" style="endArrow=none;html=1;rounded=0;exitX=0;exitY=0.5;exitDx=0;exitDy=0;" parent="1" source="_0icodKQgSt8zocZG-0z-39" target="uuZffBunbKt74AH5PHFx-5" edge="1">
          <mxGeometry width="50" height="50" relative="1" as="geometry">
            <mxPoint x="320" y="580" as="sourcePoint" />
            <mxPoint x="-300" y="1230" as="targetPoint" />
          </mxGeometry>
        </mxCell>
        <mxCell id="uuZffBunbKt74AH5PHFx-14" value="" style="endArrow=none;html=1;rounded=0;exitX=0;exitY=0.5;exitDx=0;exitDy=0;entryX=0.5;entryY=0.5;entryDx=0;entryDy=0;entryPerimeter=0;fontStyle=1" parent="1" source="_0icodKQgSt8zocZG-0z-4" target="uuZffBunbKt74AH5PHFx-5" edge="1">
          <mxGeometry width="50" height="50" relative="1" as="geometry">
            <mxPoint x="330" y="500" as="sourcePoint" />
            <mxPoint x="65" y="200" as="targetPoint" />
          </mxGeometry>
        </mxCell>
        <mxCell id="uuZffBunbKt74AH5PHFx-13" value="" style="endArrow=none;html=1;rounded=0;exitX=0;exitY=0.5;exitDx=0;exitDy=0;entryX=0.5;entryY=0.5;entryDx=0;entryDy=0;entryPerimeter=0;" parent="1" source="_0icodKQgSt8zocZG-0z-2" target="uuZffBunbKt74AH5PHFx-5" edge="1">
          <mxGeometry width="50" height="50" relative="1" as="geometry">
            <mxPoint x="320" y="490" as="sourcePoint" />
            <mxPoint x="90" y="180" as="targetPoint" />
          </mxGeometry>
        </mxCell>
        <mxCell id="uuZffBunbKt74AH5PHFx-12" value="" style="endArrow=none;html=1;rounded=0;exitX=0;exitY=0.5;exitDx=0;exitDy=0;entryX=0.5;entryY=0.5;entryDx=0;entryDy=0;entryPerimeter=0;" parent="1" source="_0icodKQgSt8zocZG-0z-3" target="uuZffBunbKt74AH5PHFx-5" edge="1">
          <mxGeometry width="50" height="50" relative="1" as="geometry">
            <mxPoint x="310" y="965" as="sourcePoint" />
            <mxPoint x="55" y="610" as="targetPoint" />
          </mxGeometry>
        </mxCell>
        <mxCell id="_0icodKQgSt8zocZG-0z-6" value="Admin" style="shape=umlActor;verticalLabelPosition=bottom;verticalAlign=top;html=1;outlineConnect=0;" parent="1" vertex="1">
          <mxGeometry x="590" y="300" width="30" height="60" as="geometry" />
        </mxCell>
        <mxCell id="_0icodKQgSt8zocZG-0z-7" value="Teacher" style="shape=umlActor;verticalLabelPosition=bottom;verticalAlign=top;html=1;outlineConnect=0;" parent="1" vertex="1">
          <mxGeometry x="-320" y="627" width="30" height="60" as="geometry" />
        </mxCell>
        <mxCell id="_0icodKQgSt8zocZG-0z-20" value="" style="endArrow=none;html=1;rounded=0;entryX=1;entryY=0.5;entryDx=0;entryDy=0;exitX=0.5;exitY=0.5;exitDx=0;exitDy=0;exitPerimeter=0;" parent="1" source="XKTfuCK65he9GiqITnCT-1" target="_0icodKQgSt8zocZG-0z-1" edge="1">
          <mxGeometry width="50" height="50" relative="1" as="geometry">
            <mxPoint x="190" y="340" as="sourcePoint" />
            <mxPoint x="240" y="290" as="targetPoint" />
          </mxGeometry>
        </mxCell>
        <mxCell id="_0icodKQgSt8zocZG-0z-22" value="" style="endArrow=none;html=1;rounded=0;exitX=0.5;exitY=0.5;exitDx=0;exitDy=0;exitPerimeter=0;entryX=1;entryY=0.5;entryDx=0;entryDy=0;" parent="1" source="_0icodKQgSt8zocZG-0z-6" target="_0icodKQgSt8zocZG-0z-3" edge="1">
          <mxGeometry width="50" height="50" relative="1" as="geometry">
            <mxPoint x="135" y="330" as="sourcePoint" />
            <mxPoint x="390" y="480" as="targetPoint" />
          </mxGeometry>
        </mxCell>
        <mxCell id="_0icodKQgSt8zocZG-0z-50" value="" style="endArrow=none;html=1;rounded=0;exitX=0.5;exitY=0.5;exitDx=0;exitDy=0;exitPerimeter=0;entryX=1;entryY=0.5;entryDx=0;entryDy=0;" parent="1" source="XKTfuCK65he9GiqITnCT-1" target="_0icodKQgSt8zocZG-0z-49" edge="1">
          <mxGeometry width="50" height="50" relative="1" as="geometry">
            <mxPoint x="75" y="320" as="sourcePoint" />
            <mxPoint x="320" y="320" as="targetPoint" />
          </mxGeometry>
        </mxCell>
        <mxCell id="_0icodKQgSt8zocZG-0z-52" value="" style="endArrow=none;html=1;rounded=0;exitX=0.5;exitY=0.5;exitDx=0;exitDy=0;exitPerimeter=0;entryX=1;entryY=0.5;entryDx=0;entryDy=0;" parent="1" source="_0icodKQgSt8zocZG-0z-6" target="_0icodKQgSt8zocZG-0z-51" edge="1">
          <mxGeometry width="50" height="50" relative="1" as="geometry">
            <mxPoint x="75" y="320" as="sourcePoint" />
            <mxPoint x="320" y="160" as="targetPoint" />
          </mxGeometry>
        </mxCell>
        <mxCell id="_0icodKQgSt8zocZG-0z-66" value="" style="endArrow=none;html=1;rounded=0;exitX=0;exitY=0.5;exitDx=0;exitDy=0;entryX=0.5;entryY=0.5;entryDx=0;entryDy=0;entryPerimeter=0;" parent="1" source="_0icodKQgSt8zocZG-0z-60" target="uuZffBunbKt74AH5PHFx-5" edge="1">
          <mxGeometry width="50" height="50" relative="1" as="geometry">
            <mxPoint x="410" y="800" as="sourcePoint" />
            <mxPoint x="-60" y="580" as="targetPoint" />
          </mxGeometry>
        </mxCell>
        <mxCell id="uuZffBunbKt74AH5PHFx-1" value="Digital School Platform" style="swimlane;whiteSpace=wrap;html=1;" parent="1" vertex="1">
          <mxGeometry x="-100" y="70" width="540" height="1450" as="geometry" />
        </mxCell>
        <mxCell id="XKTfuCK65he9GiqITnCT-14" value="School Functions" style="swimlane;horizontal=0;whiteSpace=wrap;html=1;startSize=23;" parent="uuZffBunbKt74AH5PHFx-1" vertex="1">
          <mxGeometry y="40" width="540" height="330" as="geometry" />
        </mxCell>
        <mxCell id="_0icodKQgSt8zocZG-0z-51" value="Create School" style="ellipse;whiteSpace=wrap;html=1;" parent="XKTfuCK65he9GiqITnCT-14" vertex="1">
          <mxGeometry x="424" y="20" width="90" height="60" as="geometry" />
        </mxCell>
        <mxCell id="XKTfuCK65he9GiqITnCT-2" value="Manage School" style="ellipse;whiteSpace=wrap;html=1;" parent="XKTfuCK65he9GiqITnCT-14" vertex="1">
          <mxGeometry x="244" y="170" width="90" height="60" as="geometry" />
        </mxCell>
        <mxCell id="XKTfuCK65he9GiqITnCT-20" value="Add new users" style="ellipse;whiteSpace=wrap;html=1;" parent="XKTfuCK65he9GiqITnCT-14" vertex="1">
          <mxGeometry x="334" y="80" width="90" height="60" as="geometry" />
        </mxCell>
        <mxCell id="XKTfuCK65he9GiqITnCT-39" value="Remove school" style="ellipse;whiteSpace=wrap;html=1;" parent="XKTfuCK65he9GiqITnCT-14" vertex="1">
          <mxGeometry x="50" y="120" width="90" height="60" as="geometry" />
        </mxCell>
        <mxCell id="XKTfuCK65he9GiqITnCT-40" value="&amp;lt;&amp;lt; include &amp;gt;&amp;gt;" style="endArrow=open;endSize=12;dashed=1;html=1;rounded=0;entryX=1;entryY=0.5;entryDx=0;entryDy=0;exitX=0;exitY=0.5;exitDx=0;exitDy=0;" parent="XKTfuCK65he9GiqITnCT-14" source="XKTfuCK65he9GiqITnCT-2" target="XKTfuCK65he9GiqITnCT-39" edge="1">
          <mxGeometry width="160" relative="1" as="geometry">
            <mxPoint x="275" y="250" as="sourcePoint" />
            <mxPoint x="367" y="656" as="targetPoint" />
          </mxGeometry>
        </mxCell>
        <mxCell id="_0icodKQgSt8zocZG-0z-24" value="Make Inquiry" style="ellipse;whiteSpace=wrap;html=1;" parent="XKTfuCK65he9GiqITnCT-14" vertex="1">
          <mxGeometry x="40" y="20" width="90" height="60" as="geometry" />
        </mxCell>
        <mxCell id="XKTfuCK65he9GiqITnCT-9" value="Manage Class" style="ellipse;whiteSpace=wrap;html=1;" parent="XKTfuCK65he9GiqITnCT-14" vertex="1">
          <mxGeometry x="80" y="250" width="90" height="60" as="geometry" />
        </mxCell>
        <mxCell id="XKTfuCK65he9GiqITnCT-32" value="&amp;lt;&amp;lt; include &amp;gt;&amp;gt;" style="endArrow=open;endSize=12;dashed=1;html=1;rounded=0;exitX=0;exitY=0.5;exitDx=0;exitDy=0;entryX=0.5;entryY=0;entryDx=0;entryDy=0;" parent="XKTfuCK65he9GiqITnCT-14" source="XKTfuCK65he9GiqITnCT-2" target="XKTfuCK65he9GiqITnCT-9" edge="1">
          <mxGeometry width="160" relative="1" as="geometry">
            <mxPoint x="450" y="210" as="sourcePoint" />
            <mxPoint x="187" y="579" as="targetPoint" />
          </mxGeometry>
        </mxCell>
        <mxCell id="_0icodKQgSt8zocZG-0z-45" value="Create Class" style="ellipse;whiteSpace=wrap;html=1;" parent="XKTfuCK65he9GiqITnCT-14" vertex="1">
          <mxGeometry x="380" y="250" width="90" height="60" as="geometry" />
        </mxCell>
        <mxCell id="XKTfuCK65he9GiqITnCT-31" value="&amp;lt;&amp;lt; include &amp;gt;&amp;gt;" style="endArrow=open;endSize=12;dashed=1;html=1;rounded=0;exitX=0.5;exitY=1;exitDx=0;exitDy=0;entryX=0;entryY=0;entryDx=0;entryDy=0;" parent="XKTfuCK65he9GiqITnCT-14" source="XKTfuCK65he9GiqITnCT-2" target="_0icodKQgSt8zocZG-0z-45" edge="1">
          <mxGeometry x="-0.087" y="1" width="160" relative="1" as="geometry">
            <mxPoint x="450" y="210" as="sourcePoint" />
            <mxPoint x="200" y="570" as="targetPoint" />
            <mxPoint as="offset" />
          </mxGeometry>
        </mxCell>
        <mxCell id="XKTfuCK65he9GiqITnCT-15" value="Class Functions" style="swimlane;horizontal=0;whiteSpace=wrap;html=1;" parent="uuZffBunbKt74AH5PHFx-1" vertex="1">
          <mxGeometry y="413" width="540" height="558" as="geometry" />
        </mxCell>
        <mxCell id="_0icodKQgSt8zocZG-0z-5" value="Manage Students" style="ellipse;whiteSpace=wrap;html=1;" parent="XKTfuCK65he9GiqITnCT-15" vertex="1">
          <mxGeometry x="280" y="317" width="90" height="60" as="geometry" />
        </mxCell>
        <mxCell id="_0icodKQgSt8zocZG-0z-37" value="Broadcast messages" style="ellipse;whiteSpace=wrap;html=1;" parent="XKTfuCK65he9GiqITnCT-15" vertex="1">
          <mxGeometry x="280" y="400" width="90" height="60" as="geometry" />
        </mxCell>
        <mxCell id="_0icodKQgSt8zocZG-0z-1" value="Sign up new Student" style="ellipse;whiteSpace=wrap;html=1;" parent="XKTfuCK65he9GiqITnCT-15" vertex="1">
          <mxGeometry x="280" y="237" width="90" height="60" as="geometry" />
        </mxCell>
        <mxCell id="_0icodKQgSt8zocZG-0z-49" value="Add new Teacher" style="ellipse;whiteSpace=wrap;html=1;" parent="XKTfuCK65he9GiqITnCT-15" vertex="1">
          <mxGeometry x="280" y="157" width="90" height="60" as="geometry" />
        </mxCell>
        <mxCell id="_0icodKQgSt8zocZG-0z-39" value="Upload material" style="ellipse;whiteSpace=wrap;html=1;" parent="XKTfuCK65he9GiqITnCT-15" vertex="1">
          <mxGeometry x="250" y="478" width="90" height="60" as="geometry" />
        </mxCell>
        <mxCell id="XKTfuCK65he9GiqITnCT-7" value="School Authentication" style="ellipse;whiteSpace=wrap;html=1;" parent="XKTfuCK65he9GiqITnCT-15" vertex="1">
          <mxGeometry x="360" y="67" width="90" height="60" as="geometry" />
        </mxCell>
        <mxCell id="XKTfuCK65he9GiqITnCT-16" value="User Functions" style="swimlane;horizontal=0;whiteSpace=wrap;html=1;" parent="uuZffBunbKt74AH5PHFx-1" vertex="1">
          <mxGeometry y="1014" width="540" height="389" as="geometry" />
        </mxCell>
        <mxCell id="_0icodKQgSt8zocZG-0z-4" value="View Class" style="ellipse;whiteSpace=wrap;html=1;" parent="XKTfuCK65he9GiqITnCT-16" vertex="1">
          <mxGeometry x="220" y="119" width="90" height="60" as="geometry" />
        </mxCell>
        <mxCell id="_0icodKQgSt8zocZG-0z-2" value="Authentication" style="ellipse;whiteSpace=wrap;html=1;" parent="XKTfuCK65he9GiqITnCT-16" vertex="1">
          <mxGeometry x="150" y="39" width="90" height="60" as="geometry" />
        </mxCell>
        <mxCell id="_0icodKQgSt8zocZG-0z-3" value="Manage Profile" style="ellipse;whiteSpace=wrap;html=1;" parent="XKTfuCK65he9GiqITnCT-16" vertex="1">
          <mxGeometry x="280" y="204.5" width="90" height="60" as="geometry" />
        </mxCell>
        <mxCell id="_0icodKQgSt8zocZG-0z-60" value="Send message to users of same school" style="ellipse;whiteSpace=wrap;html=1;" parent="XKTfuCK65he9GiqITnCT-16" vertex="1">
          <mxGeometry x="310" y="289" width="110" height="70" as="geometry" />
        </mxCell>
        <mxCell id="XKTfuCK65he9GiqITnCT-27" value="&amp;lt;&amp;lt; include &amp;gt;&amp;gt;" style="endArrow=open;endSize=12;dashed=1;html=1;rounded=0;exitX=0.5;exitY=1;exitDx=0;exitDy=0;entryX=0.5;entryY=0;entryDx=0;entryDy=0;" parent="uuZffBunbKt74AH5PHFx-1" source="XKTfuCK65he9GiqITnCT-2" target="_0icodKQgSt8zocZG-0z-49" edge="1">
          <mxGeometry width="160" relative="1" as="geometry">
            <mxPoint x="160" y="230" as="sourcePoint" />
            <mxPoint x="320" y="230" as="targetPoint" />
          </mxGeometry>
        </mxCell>
        <mxCell id="XKTfuCK65he9GiqITnCT-43" value="&amp;lt;&amp;lt; include &amp;gt;&amp;gt;" style="endArrow=open;endSize=12;dashed=1;html=1;rounded=0;entryX=0.5;entryY=0;entryDx=0;entryDy=0;exitX=0.5;exitY=1;exitDx=0;exitDy=0;" parent="uuZffBunbKt74AH5PHFx-1" source="XKTfuCK65he9GiqITnCT-9" target="_0icodKQgSt8zocZG-0z-4" edge="1">
          <mxGeometry width="160" relative="1" as="geometry">
            <mxPoint x="125" y="570" as="sourcePoint" />
            <mxPoint x="290" y="947" as="targetPoint" />
          </mxGeometry>
        </mxCell>
        <mxCell id="XKTfuCK65he9GiqITnCT-33" value="&amp;lt;&amp;lt; include &amp;gt;&amp;gt;" style="endArrow=open;endSize=12;dashed=1;html=1;rounded=0;exitX=0.5;exitY=1;exitDx=0;exitDy=0;entryX=0;entryY=0.5;entryDx=0;entryDy=0;" parent="uuZffBunbKt74AH5PHFx-1" source="XKTfuCK65he9GiqITnCT-9" target="_0icodKQgSt8zocZG-0z-49" edge="1">
          <mxGeometry width="160" relative="1" as="geometry">
            <mxPoint x="450" y="251" as="sourcePoint" />
            <mxPoint x="307" y="620" as="targetPoint" />
          </mxGeometry>
        </mxCell>
        <mxCell id="XKTfuCK65he9GiqITnCT-36" value="&amp;lt;&amp;lt; include &amp;gt;&amp;gt;" style="endArrow=open;endSize=12;dashed=1;html=1;rounded=0;exitX=0.5;exitY=1;exitDx=0;exitDy=0;entryX=0;entryY=0.5;entryDx=0;entryDy=0;" parent="uuZffBunbKt74AH5PHFx-1" source="XKTfuCK65he9GiqITnCT-9" target="_0icodKQgSt8zocZG-0z-37" edge="1">
          <mxGeometry width="160" relative="1" as="geometry">
            <mxPoint x="155" y="621" as="sourcePoint" />
            <mxPoint x="290" y="781" as="targetPoint" />
          </mxGeometry>
        </mxCell>
        <mxCell id="XKTfuCK65he9GiqITnCT-35" value="&amp;lt;&amp;lt; include &amp;gt;&amp;gt;" style="endArrow=open;endSize=12;dashed=1;html=1;rounded=0;exitX=0.5;exitY=1;exitDx=0;exitDy=0;entryX=0;entryY=0.5;entryDx=0;entryDy=0;" parent="uuZffBunbKt74AH5PHFx-1" source="XKTfuCK65he9GiqITnCT-9" target="_0icodKQgSt8zocZG-0z-5" edge="1">
          <mxGeometry width="160" relative="1" as="geometry">
            <mxPoint x="145" y="611" as="sourcePoint" />
            <mxPoint x="290" y="701" as="targetPoint" />
          </mxGeometry>
        </mxCell>
        <mxCell id="XKTfuCK65he9GiqITnCT-34" value="&amp;lt;&amp;lt; include &amp;gt;&amp;gt;" style="endArrow=open;endSize=12;dashed=1;html=1;rounded=0;exitX=0.5;exitY=1;exitDx=0;exitDy=0;entryX=0;entryY=0.5;entryDx=0;entryDy=0;" parent="uuZffBunbKt74AH5PHFx-1" source="XKTfuCK65he9GiqITnCT-9" target="_0icodKQgSt8zocZG-0z-1" edge="1">
          <mxGeometry width="160" relative="1" as="geometry">
            <mxPoint x="135" y="601" as="sourcePoint" />
            <mxPoint x="230" y="641" as="targetPoint" />
          </mxGeometry>
        </mxCell>
        <mxCell id="XKTfuCK65he9GiqITnCT-41" value="&amp;lt;&amp;lt; include &amp;gt;&amp;gt;" style="endArrow=open;endSize=12;dashed=1;html=1;rounded=0;exitX=0.5;exitY=1;exitDx=0;exitDy=0;entryX=0;entryY=0;entryDx=0;entryDy=0;" parent="uuZffBunbKt74AH5PHFx-1" source="XKTfuCK65he9GiqITnCT-9" target="_0icodKQgSt8zocZG-0z-39" edge="1">
          <mxGeometry width="160" relative="1" as="geometry">
            <mxPoint x="135" y="601" as="sourcePoint" />
            <mxPoint x="290" y="853" as="targetPoint" />
          </mxGeometry>
        </mxCell>
        <mxCell id="uuZffBunbKt74AH5PHFx-5" value="Student" style="shape=umlActor;verticalLabelPosition=bottom;verticalAlign=top;html=1;outlineConnect=0;" parent="1" vertex="1">
          <mxGeometry x="-320" y="977" width="30" height="60" as="geometry" />
        </mxCell>
        <mxCell id="XKTfuCK65he9GiqITnCT-1" value="School Admin" style="shape=umlActor;verticalLabelPosition=bottom;verticalAlign=top;html=1;outlineConnect=0;" parent="1" vertex="1">
          <mxGeometry x="590" y="610" width="30" height="60" as="geometry" />
        </mxCell>
        <mxCell id="XKTfuCK65he9GiqITnCT-3" value="" style="endArrow=none;html=1;rounded=0;exitX=0.5;exitY=0.5;exitDx=0;exitDy=0;exitPerimeter=0;entryX=1;entryY=0.5;entryDx=0;entryDy=0;" parent="1" source="_0icodKQgSt8zocZG-0z-6" target="XKTfuCK65he9GiqITnCT-2" edge="1">
          <mxGeometry width="50" height="50" relative="1" as="geometry">
            <mxPoint x="775" y="600" as="sourcePoint" />
            <mxPoint x="356" y="420" as="targetPoint" />
          </mxGeometry>
        </mxCell>
        <mxCell id="XKTfuCK65he9GiqITnCT-6" value="" style="endArrow=none;html=1;rounded=0;entryX=1;entryY=0.5;entryDx=0;entryDy=0;exitX=0.5;exitY=0.5;exitDx=0;exitDy=0;exitPerimeter=0;" parent="1" source="XKTfuCK65he9GiqITnCT-1" target="_0icodKQgSt8zocZG-0z-39" edge="1">
          <mxGeometry width="50" height="50" relative="1" as="geometry">
            <mxPoint x="775" y="280" as="sourcePoint" />
            <mxPoint x="276" y="580" as="targetPoint" />
          </mxGeometry>
        </mxCell>
        <mxCell id="XKTfuCK65he9GiqITnCT-8" value="" style="endArrow=none;html=1;rounded=0;exitX=0.5;exitY=0.5;exitDx=0;exitDy=0;exitPerimeter=0;entryX=1;entryY=0.5;entryDx=0;entryDy=0;" parent="1" source="XKTfuCK65he9GiqITnCT-1" target="XKTfuCK65he9GiqITnCT-7" edge="1">
          <mxGeometry width="50" height="50" relative="1" as="geometry">
            <mxPoint x="775" y="280" as="sourcePoint" />
            <mxPoint x="276" y="410" as="targetPoint" />
          </mxGeometry>
        </mxCell>
        <mxCell id="XKTfuCK65he9GiqITnCT-10" value="" style="endArrow=none;html=1;rounded=0;entryX=1;entryY=0.5;entryDx=0;entryDy=0;exitX=0.5;exitY=0.5;exitDx=0;exitDy=0;exitPerimeter=0;" parent="1" source="XKTfuCK65he9GiqITnCT-1" target="_0icodKQgSt8zocZG-0z-45" edge="1">
          <mxGeometry width="50" height="50" relative="1" as="geometry">
            <mxPoint x="775" y="280" as="sourcePoint" />
            <mxPoint x="280" y="440" as="targetPoint" />
          </mxGeometry>
        </mxCell>
        <mxCell id="XKTfuCK65he9GiqITnCT-21" value="" style="endArrow=none;html=1;rounded=0;exitX=0.5;exitY=0.5;exitDx=0;exitDy=0;exitPerimeter=0;entryX=1;entryY=0.5;entryDx=0;entryDy=0;" parent="1" source="_0icodKQgSt8zocZG-0z-6" target="XKTfuCK65he9GiqITnCT-20" edge="1">
          <mxGeometry width="50" height="50" relative="1" as="geometry">
            <mxPoint x="775" y="220" as="sourcePoint" />
            <mxPoint x="440" y="320" as="targetPoint" />
          </mxGeometry>
        </mxCell>
        <mxCell id="XKTfuCK65he9GiqITnCT-26" value="" style="endArrow=none;html=1;rounded=0;entryX=1;entryY=1;entryDx=0;entryDy=0;exitX=0.5;exitY=0.5;exitDx=0;exitDy=0;exitPerimeter=0;" parent="1" source="XKTfuCK65he9GiqITnCT-1" target="XKTfuCK65he9GiqITnCT-9" edge="1">
          <mxGeometry width="50" height="50" relative="1" as="geometry">
            <mxPoint x="750" y="720" as="sourcePoint" />
            <mxPoint x="290" y="680" as="targetPoint" />
          </mxGeometry>
        </mxCell>
        <mxCell id="XKTfuCK65he9GiqITnCT-42" value="" style="endArrow=none;html=1;rounded=0;exitX=0;exitY=0.5;exitDx=0;exitDy=0;entryX=0.5;entryY=0.5;entryDx=0;entryDy=0;entryPerimeter=0;fontStyle=1;" parent="1" source="XKTfuCK65he9GiqITnCT-7" target="_0icodKQgSt8zocZG-0z-7" edge="1">
          <mxGeometry width="50" height="50" relative="1" as="geometry">
            <mxPoint x="-20" y="610" as="sourcePoint" />
            <mxPoint x="-295" y="610" as="targetPoint" />
          </mxGeometry>
        </mxCell>
        <mxCell id="XKTfuCK65he9GiqITnCT-44" value="" style="endArrow=none;html=1;rounded=0;exitX=0;exitY=0.5;exitDx=0;exitDy=0;entryX=0.5;entryY=0.5;entryDx=0;entryDy=0;entryPerimeter=0;fontStyle=1;" parent="1" source="_0icodKQgSt8zocZG-0z-2" target="_0icodKQgSt8zocZG-0z-7" edge="1">
          <mxGeometry width="50" height="50" relative="1" as="geometry">
            <mxPoint x="270" y="667" as="sourcePoint" />
            <mxPoint x="-295" y="667" as="targetPoint" />
          </mxGeometry>
        </mxCell>
        <mxCell id="XKTfuCK65he9GiqITnCT-45" value="" style="endArrow=none;html=1;rounded=0;entryX=1;entryY=0.5;entryDx=0;entryDy=0;exitX=0.5;exitY=0.5;exitDx=0;exitDy=0;exitPerimeter=0;" parent="1" source="XKTfuCK65he9GiqITnCT-1" target="_0icodKQgSt8zocZG-0z-2" edge="1">
          <mxGeometry width="50" height="50" relative="1" as="geometry">
            <mxPoint x="775" y="640" as="sourcePoint" />
            <mxPoint x="280" y="1017" as="targetPoint" />
          </mxGeometry>
        </mxCell>
        <mxCell id="_0icodKQgSt8zocZG-0z-11" value="Visitor" style="shape=umlActor;verticalLabelPosition=bottom;verticalAlign=top;html=1;outlineConnect=0;" parent="1" vertex="1">
          <mxGeometry x="-320" y="130" width="30" height="60" as="geometry" />
        </mxCell>
        <mxCell id="_0icodKQgSt8zocZG-0z-26" value="" style="endArrow=none;html=1;rounded=0;entryX=0.5;entryY=0.5;entryDx=0;entryDy=0;entryPerimeter=0;exitX=0;exitY=0.5;exitDx=0;exitDy=0;" parent="1" source="_0icodKQgSt8zocZG-0z-24" target="_0icodKQgSt8zocZG-0z-11" edge="1">
          <mxGeometry width="50" height="50" relative="1" as="geometry">
            <mxPoint x="-50" y="320" as="sourcePoint" />
            <mxPoint x="350" y="-960" as="targetPoint" />
          </mxGeometry>
        </mxCell>
        <mxCell id="XKTfuCK65he9GiqITnCT-49" value="" style="endArrow=none;html=1;rounded=0;exitX=0;exitY=0.5;exitDx=0;exitDy=0;entryX=0.5;entryY=0.5;entryDx=0;entryDy=0;entryPerimeter=0;fontStyle=1;" parent="1" source="_0icodKQgSt8zocZG-0z-45" target="_0icodKQgSt8zocZG-0z-7" edge="1">
          <mxGeometry width="50" height="50" relative="1" as="geometry">
            <mxPoint x="-40" y="370" as="sourcePoint" />
            <mxPoint x="-295" y="667" as="targetPoint" />
          </mxGeometry>
        </mxCell>
        <mxCell id="XKTfuCK65he9GiqITnCT-50" value="" style="endArrow=none;html=1;rounded=0;exitX=0.5;exitY=0.5;exitDx=0;exitDy=0;exitPerimeter=0;entryX=1;entryY=0.5;entryDx=0;entryDy=0;" parent="1" source="_0icodKQgSt8zocZG-0z-6" target="_0icodKQgSt8zocZG-0z-45" edge="1">
          <mxGeometry width="50" height="50" relative="1" as="geometry">
            <mxPoint x="615" y="340" as="sourcePoint" />
            <mxPoint x="424" y="170" as="targetPoint" />
          </mxGeometry>
        </mxCell>
      </root>
    </mxGraphModel>
  </diagram>
  <diagram id="CBDTyfEL8phhLrRvM7UD" name="Page-2">
    <mxGraphModel dx="1840" dy="955" grid="1" gridSize="10" guides="1" tooltips="1" connect="1" arrows="1" fold="1" page="1" pageScale="1" pageWidth="827" pageHeight="1169" math="0" shadow="0">
      <root>
        <mxCell id="0" />
        <mxCell id="1" parent="0" />
        <mxCell id="OZw_Fmp-zLQBNfYllk_t-1" value="" style="endArrow=none;html=1;rounded=0;exitX=0;exitY=1;exitDx=0;exitDy=0;entryX=0.5;entryY=0.5;entryDx=0;entryDy=0;entryPerimeter=0;fontStyle=1;" edge="1" parent="1" source="OZw_Fmp-zLQBNfYllk_t-21" target="OZw_Fmp-zLQBNfYllk_t-7">
          <mxGeometry width="50" height="50" relative="1" as="geometry">
            <mxPoint x="190" y="440" as="sourcePoint" />
            <mxPoint x="-455" y="463" as="targetPoint" />
          </mxGeometry>
        </mxCell>
        <mxCell id="OZw_Fmp-zLQBNfYllk_t-2" value="" style="endArrow=none;html=1;rounded=0;exitX=0;exitY=0.5;exitDx=0;exitDy=0;" edge="1" parent="1" source="OZw_Fmp-zLQBNfYllk_t-30" target="OZw_Fmp-zLQBNfYllk_t-44">
          <mxGeometry width="50" height="50" relative="1" as="geometry">
            <mxPoint x="320" y="580" as="sourcePoint" />
            <mxPoint x="-300" y="1230" as="targetPoint" />
          </mxGeometry>
        </mxCell>
        <mxCell id="OZw_Fmp-zLQBNfYllk_t-3" value="" style="endArrow=none;html=1;rounded=0;exitX=0;exitY=0.5;exitDx=0;exitDy=0;entryX=0.5;entryY=0.5;entryDx=0;entryDy=0;entryPerimeter=0;fontStyle=1" edge="1" parent="1" source="OZw_Fmp-zLQBNfYllk_t-33" target="OZw_Fmp-zLQBNfYllk_t-44">
          <mxGeometry width="50" height="50" relative="1" as="geometry">
            <mxPoint x="330" y="500" as="sourcePoint" />
            <mxPoint x="65" y="200" as="targetPoint" />
          </mxGeometry>
        </mxCell>
        <mxCell id="OZw_Fmp-zLQBNfYllk_t-4" value="" style="endArrow=none;html=1;rounded=0;exitX=0;exitY=0.5;exitDx=0;exitDy=0;entryX=0.5;entryY=0.5;entryDx=0;entryDy=0;entryPerimeter=0;" edge="1" parent="1" source="OZw_Fmp-zLQBNfYllk_t-34" target="OZw_Fmp-zLQBNfYllk_t-44">
          <mxGeometry width="50" height="50" relative="1" as="geometry">
            <mxPoint x="320" y="490" as="sourcePoint" />
            <mxPoint x="90" y="180" as="targetPoint" />
          </mxGeometry>
        </mxCell>
        <mxCell id="OZw_Fmp-zLQBNfYllk_t-5" value="" style="endArrow=none;html=1;rounded=0;exitX=0;exitY=0.5;exitDx=0;exitDy=0;entryX=0.5;entryY=0.5;entryDx=0;entryDy=0;entryPerimeter=0;" edge="1" parent="1" source="OZw_Fmp-zLQBNfYllk_t-35" target="OZw_Fmp-zLQBNfYllk_t-44">
          <mxGeometry width="50" height="50" relative="1" as="geometry">
            <mxPoint x="310" y="965" as="sourcePoint" />
            <mxPoint x="55" y="610" as="targetPoint" />
          </mxGeometry>
        </mxCell>
        <mxCell id="OZw_Fmp-zLQBNfYllk_t-6" value="Admin" style="shape=umlActor;verticalLabelPosition=bottom;verticalAlign=top;html=1;outlineConnect=0;" vertex="1" parent="1">
          <mxGeometry x="590" y="300" width="30" height="60" as="geometry" />
        </mxCell>
        <mxCell id="OZw_Fmp-zLQBNfYllk_t-7" value="Teacher" style="shape=umlActor;verticalLabelPosition=bottom;verticalAlign=top;html=1;outlineConnect=0;" vertex="1" parent="1">
          <mxGeometry x="-320" y="627" width="30" height="60" as="geometry" />
        </mxCell>
        <mxCell id="OZw_Fmp-zLQBNfYllk_t-8" value="" style="endArrow=none;html=1;rounded=0;entryX=1;entryY=0.5;entryDx=0;entryDy=0;exitX=0.5;exitY=0.5;exitDx=0;exitDy=0;exitPerimeter=0;" edge="1" parent="1" source="OZw_Fmp-zLQBNfYllk_t-45" target="OZw_Fmp-zLQBNfYllk_t-28">
          <mxGeometry width="50" height="50" relative="1" as="geometry">
            <mxPoint x="190" y="340" as="sourcePoint" />
            <mxPoint x="240" y="290" as="targetPoint" />
          </mxGeometry>
        </mxCell>
        <mxCell id="OZw_Fmp-zLQBNfYllk_t-9" value="" style="endArrow=none;html=1;rounded=0;exitX=0.5;exitY=0.5;exitDx=0;exitDy=0;exitPerimeter=0;entryX=1;entryY=0.5;entryDx=0;entryDy=0;" edge="1" parent="1" source="OZw_Fmp-zLQBNfYllk_t-6" target="OZw_Fmp-zLQBNfYllk_t-35">
          <mxGeometry width="50" height="50" relative="1" as="geometry">
            <mxPoint x="135" y="330" as="sourcePoint" />
            <mxPoint x="390" y="480" as="targetPoint" />
          </mxGeometry>
        </mxCell>
        <mxCell id="OZw_Fmp-zLQBNfYllk_t-10" value="" style="endArrow=none;html=1;rounded=0;exitX=0.5;exitY=0.5;exitDx=0;exitDy=0;exitPerimeter=0;entryX=1;entryY=0.5;entryDx=0;entryDy=0;" edge="1" parent="1" source="OZw_Fmp-zLQBNfYllk_t-45" target="OZw_Fmp-zLQBNfYllk_t-29">
          <mxGeometry width="50" height="50" relative="1" as="geometry">
            <mxPoint x="75" y="320" as="sourcePoint" />
            <mxPoint x="320" y="320" as="targetPoint" />
          </mxGeometry>
        </mxCell>
        <mxCell id="OZw_Fmp-zLQBNfYllk_t-11" value="" style="endArrow=none;html=1;rounded=0;exitX=0.5;exitY=0.5;exitDx=0;exitDy=0;exitPerimeter=0;entryX=1;entryY=0.5;entryDx=0;entryDy=0;" edge="1" parent="1" source="OZw_Fmp-zLQBNfYllk_t-6" target="OZw_Fmp-zLQBNfYllk_t-15">
          <mxGeometry width="50" height="50" relative="1" as="geometry">
            <mxPoint x="75" y="320" as="sourcePoint" />
            <mxPoint x="320" y="160" as="targetPoint" />
          </mxGeometry>
        </mxCell>
        <mxCell id="OZw_Fmp-zLQBNfYllk_t-13" value="Digital School Platform" style="swimlane;whiteSpace=wrap;html=1;" vertex="1" parent="1">
          <mxGeometry x="-100" y="70" width="540" height="1330" as="geometry" />
        </mxCell>
        <mxCell id="OZw_Fmp-zLQBNfYllk_t-14" value="School Functions" style="swimlane;horizontal=0;whiteSpace=wrap;html=1;startSize=23;" vertex="1" parent="OZw_Fmp-zLQBNfYllk_t-13">
          <mxGeometry y="40" width="540" height="330" as="geometry" />
        </mxCell>
        <mxCell id="OZw_Fmp-zLQBNfYllk_t-15" value="Create School" style="ellipse;whiteSpace=wrap;html=1;" vertex="1" parent="OZw_Fmp-zLQBNfYllk_t-14">
          <mxGeometry x="424" y="20" width="90" height="60" as="geometry" />
        </mxCell>
        <mxCell id="OZw_Fmp-zLQBNfYllk_t-16" value="Manage School" style="ellipse;whiteSpace=wrap;html=1;" vertex="1" parent="OZw_Fmp-zLQBNfYllk_t-14">
          <mxGeometry x="244" y="170" width="90" height="60" as="geometry" />
        </mxCell>
        <mxCell id="OZw_Fmp-zLQBNfYllk_t-17" value="Add new users" style="ellipse;whiteSpace=wrap;html=1;" vertex="1" parent="OZw_Fmp-zLQBNfYllk_t-14">
          <mxGeometry x="334" y="80" width="90" height="60" as="geometry" />
        </mxCell>
        <mxCell id="OZw_Fmp-zLQBNfYllk_t-18" value="Remove school" style="ellipse;whiteSpace=wrap;html=1;" vertex="1" parent="OZw_Fmp-zLQBNfYllk_t-14">
          <mxGeometry x="50" y="120" width="90" height="60" as="geometry" />
        </mxCell>
        <mxCell id="OZw_Fmp-zLQBNfYllk_t-19" value="&amp;lt;&amp;lt; include &amp;gt;&amp;gt;" style="endArrow=open;endSize=12;dashed=1;html=1;rounded=0;entryX=1;entryY=0.5;entryDx=0;entryDy=0;exitX=0;exitY=0.5;exitDx=0;exitDy=0;" edge="1" parent="OZw_Fmp-zLQBNfYllk_t-14" source="OZw_Fmp-zLQBNfYllk_t-16" target="OZw_Fmp-zLQBNfYllk_t-18">
          <mxGeometry width="160" relative="1" as="geometry">
            <mxPoint x="275" y="250" as="sourcePoint" />
            <mxPoint x="367" y="656" as="targetPoint" />
          </mxGeometry>
        </mxCell>
        <mxCell id="OZw_Fmp-zLQBNfYllk_t-20" value="Make Inquiry" style="ellipse;whiteSpace=wrap;html=1;" vertex="1" parent="OZw_Fmp-zLQBNfYllk_t-14">
          <mxGeometry x="40" y="20" width="90" height="60" as="geometry" />
        </mxCell>
        <mxCell id="OZw_Fmp-zLQBNfYllk_t-21" value="Manage Class" style="ellipse;whiteSpace=wrap;html=1;" vertex="1" parent="OZw_Fmp-zLQBNfYllk_t-14">
          <mxGeometry x="80" y="250" width="90" height="60" as="geometry" />
        </mxCell>
        <mxCell id="OZw_Fmp-zLQBNfYllk_t-22" value="&amp;lt;&amp;lt; include &amp;gt;&amp;gt;" style="endArrow=open;endSize=12;dashed=1;html=1;rounded=0;exitX=0;exitY=0.5;exitDx=0;exitDy=0;entryX=0.5;entryY=0;entryDx=0;entryDy=0;" edge="1" parent="OZw_Fmp-zLQBNfYllk_t-14" source="OZw_Fmp-zLQBNfYllk_t-16" target="OZw_Fmp-zLQBNfYllk_t-21">
          <mxGeometry width="160" relative="1" as="geometry">
            <mxPoint x="450" y="210" as="sourcePoint" />
            <mxPoint x="187" y="579" as="targetPoint" />
          </mxGeometry>
        </mxCell>
        <mxCell id="OZw_Fmp-zLQBNfYllk_t-23" value="Create Class" style="ellipse;whiteSpace=wrap;html=1;" vertex="1" parent="OZw_Fmp-zLQBNfYllk_t-14">
          <mxGeometry x="380" y="250" width="90" height="60" as="geometry" />
        </mxCell>
        <mxCell id="OZw_Fmp-zLQBNfYllk_t-24" value="&amp;lt;&amp;lt; include &amp;gt;&amp;gt;" style="endArrow=open;endSize=12;dashed=1;html=1;rounded=0;exitX=0.5;exitY=1;exitDx=0;exitDy=0;entryX=0;entryY=0;entryDx=0;entryDy=0;" edge="1" parent="OZw_Fmp-zLQBNfYllk_t-14" source="OZw_Fmp-zLQBNfYllk_t-16" target="OZw_Fmp-zLQBNfYllk_t-23">
          <mxGeometry x="-0.087" y="1" width="160" relative="1" as="geometry">
            <mxPoint x="450" y="210" as="sourcePoint" />
            <mxPoint x="200" y="570" as="targetPoint" />
            <mxPoint as="offset" />
          </mxGeometry>
        </mxCell>
        <mxCell id="OZw_Fmp-zLQBNfYllk_t-25" value="Class Functions" style="swimlane;horizontal=0;whiteSpace=wrap;html=1;" vertex="1" parent="OZw_Fmp-zLQBNfYllk_t-13">
          <mxGeometry y="413" width="540" height="558" as="geometry" />
        </mxCell>
        <mxCell id="OZw_Fmp-zLQBNfYllk_t-26" value="Manage Students" style="ellipse;whiteSpace=wrap;html=1;" vertex="1" parent="OZw_Fmp-zLQBNfYllk_t-25">
          <mxGeometry x="280" y="317" width="90" height="60" as="geometry" />
        </mxCell>
        <mxCell id="OZw_Fmp-zLQBNfYllk_t-27" value="Broadcast messages" style="ellipse;whiteSpace=wrap;html=1;" vertex="1" parent="OZw_Fmp-zLQBNfYllk_t-25">
          <mxGeometry x="280" y="400" width="90" height="60" as="geometry" />
        </mxCell>
        <mxCell id="OZw_Fmp-zLQBNfYllk_t-28" value="Sign up new Student" style="ellipse;whiteSpace=wrap;html=1;" vertex="1" parent="OZw_Fmp-zLQBNfYllk_t-25">
          <mxGeometry x="280" y="237" width="90" height="60" as="geometry" />
        </mxCell>
        <mxCell id="OZw_Fmp-zLQBNfYllk_t-29" value="Add new Teacher" style="ellipse;whiteSpace=wrap;html=1;" vertex="1" parent="OZw_Fmp-zLQBNfYllk_t-25">
          <mxGeometry x="280" y="157" width="90" height="60" as="geometry" />
        </mxCell>
        <mxCell id="OZw_Fmp-zLQBNfYllk_t-30" value="Upload material" style="ellipse;whiteSpace=wrap;html=1;" vertex="1" parent="OZw_Fmp-zLQBNfYllk_t-25">
          <mxGeometry x="250" y="478" width="90" height="60" as="geometry" />
        </mxCell>
        <mxCell id="OZw_Fmp-zLQBNfYllk_t-31" value="School Authentication" style="ellipse;whiteSpace=wrap;html=1;" vertex="1" parent="OZw_Fmp-zLQBNfYllk_t-25">
          <mxGeometry x="360" y="67" width="90" height="60" as="geometry" />
        </mxCell>
        <mxCell id="OZw_Fmp-zLQBNfYllk_t-32" value="User Functions" style="swimlane;horizontal=0;whiteSpace=wrap;html=1;" vertex="1" parent="OZw_Fmp-zLQBNfYllk_t-13">
          <mxGeometry y="1014" width="540" height="286" as="geometry" />
        </mxCell>
        <mxCell id="OZw_Fmp-zLQBNfYllk_t-33" value="View Class" style="ellipse;whiteSpace=wrap;html=1;" vertex="1" parent="OZw_Fmp-zLQBNfYllk_t-32">
          <mxGeometry x="220" y="119" width="90" height="60" as="geometry" />
        </mxCell>
        <mxCell id="OZw_Fmp-zLQBNfYllk_t-34" value="Authentication" style="ellipse;whiteSpace=wrap;html=1;" vertex="1" parent="OZw_Fmp-zLQBNfYllk_t-32">
          <mxGeometry x="150" y="39" width="90" height="60" as="geometry" />
        </mxCell>
        <mxCell id="OZw_Fmp-zLQBNfYllk_t-35" value="Manage Profile" style="ellipse;whiteSpace=wrap;html=1;" vertex="1" parent="OZw_Fmp-zLQBNfYllk_t-32">
          <mxGeometry x="280" y="204.5" width="90" height="60" as="geometry" />
        </mxCell>
        <mxCell id="OZw_Fmp-zLQBNfYllk_t-37" value="&amp;lt;&amp;lt; include &amp;gt;&amp;gt;" style="endArrow=open;endSize=12;dashed=1;html=1;rounded=0;exitX=0.5;exitY=1;exitDx=0;exitDy=0;entryX=0.5;entryY=0;entryDx=0;entryDy=0;" edge="1" parent="OZw_Fmp-zLQBNfYllk_t-13" source="OZw_Fmp-zLQBNfYllk_t-16" target="OZw_Fmp-zLQBNfYllk_t-29">
          <mxGeometry width="160" relative="1" as="geometry">
            <mxPoint x="160" y="230" as="sourcePoint" />
            <mxPoint x="320" y="230" as="targetPoint" />
          </mxGeometry>
        </mxCell>
        <mxCell id="OZw_Fmp-zLQBNfYllk_t-38" value="&amp;lt;&amp;lt; include &amp;gt;&amp;gt;" style="endArrow=open;endSize=12;dashed=1;html=1;rounded=0;entryX=0.5;entryY=0;entryDx=0;entryDy=0;exitX=0.5;exitY=1;exitDx=0;exitDy=0;" edge="1" parent="OZw_Fmp-zLQBNfYllk_t-13" source="OZw_Fmp-zLQBNfYllk_t-21" target="OZw_Fmp-zLQBNfYllk_t-33">
          <mxGeometry width="160" relative="1" as="geometry">
            <mxPoint x="125" y="570" as="sourcePoint" />
            <mxPoint x="290" y="947" as="targetPoint" />
          </mxGeometry>
        </mxCell>
        <mxCell id="OZw_Fmp-zLQBNfYllk_t-39" value="&amp;lt;&amp;lt; include &amp;gt;&amp;gt;" style="endArrow=open;endSize=12;dashed=1;html=1;rounded=0;exitX=0.5;exitY=1;exitDx=0;exitDy=0;entryX=0;entryY=0.5;entryDx=0;entryDy=0;" edge="1" parent="OZw_Fmp-zLQBNfYllk_t-13" source="OZw_Fmp-zLQBNfYllk_t-21" target="OZw_Fmp-zLQBNfYllk_t-29">
          <mxGeometry width="160" relative="1" as="geometry">
            <mxPoint x="450" y="251" as="sourcePoint" />
            <mxPoint x="307" y="620" as="targetPoint" />
          </mxGeometry>
        </mxCell>
        <mxCell id="OZw_Fmp-zLQBNfYllk_t-40" value="&amp;lt;&amp;lt; include &amp;gt;&amp;gt;" style="endArrow=open;endSize=12;dashed=1;html=1;rounded=0;exitX=0.5;exitY=1;exitDx=0;exitDy=0;entryX=0;entryY=0.5;entryDx=0;entryDy=0;" edge="1" parent="OZw_Fmp-zLQBNfYllk_t-13" source="OZw_Fmp-zLQBNfYllk_t-21" target="OZw_Fmp-zLQBNfYllk_t-27">
          <mxGeometry width="160" relative="1" as="geometry">
            <mxPoint x="155" y="621" as="sourcePoint" />
            <mxPoint x="290" y="781" as="targetPoint" />
          </mxGeometry>
        </mxCell>
        <mxCell id="OZw_Fmp-zLQBNfYllk_t-41" value="&amp;lt;&amp;lt; include &amp;gt;&amp;gt;" style="endArrow=open;endSize=12;dashed=1;html=1;rounded=0;exitX=0.5;exitY=1;exitDx=0;exitDy=0;entryX=0;entryY=0.5;entryDx=0;entryDy=0;" edge="1" parent="OZw_Fmp-zLQBNfYllk_t-13" source="OZw_Fmp-zLQBNfYllk_t-21" target="OZw_Fmp-zLQBNfYllk_t-26">
          <mxGeometry width="160" relative="1" as="geometry">
            <mxPoint x="145" y="611" as="sourcePoint" />
            <mxPoint x="290" y="701" as="targetPoint" />
          </mxGeometry>
        </mxCell>
        <mxCell id="OZw_Fmp-zLQBNfYllk_t-42" value="&amp;lt;&amp;lt; include &amp;gt;&amp;gt;" style="endArrow=open;endSize=12;dashed=1;html=1;rounded=0;exitX=0.5;exitY=1;exitDx=0;exitDy=0;entryX=0;entryY=0.5;entryDx=0;entryDy=0;" edge="1" parent="OZw_Fmp-zLQBNfYllk_t-13" source="OZw_Fmp-zLQBNfYllk_t-21" target="OZw_Fmp-zLQBNfYllk_t-28">
          <mxGeometry width="160" relative="1" as="geometry">
            <mxPoint x="135" y="601" as="sourcePoint" />
            <mxPoint x="230" y="641" as="targetPoint" />
          </mxGeometry>
        </mxCell>
        <mxCell id="OZw_Fmp-zLQBNfYllk_t-43" value="&amp;lt;&amp;lt; include &amp;gt;&amp;gt;" style="endArrow=open;endSize=12;dashed=1;html=1;rounded=0;exitX=0.5;exitY=1;exitDx=0;exitDy=0;entryX=0;entryY=0;entryDx=0;entryDy=0;" edge="1" parent="OZw_Fmp-zLQBNfYllk_t-13" source="OZw_Fmp-zLQBNfYllk_t-21" target="OZw_Fmp-zLQBNfYllk_t-30">
          <mxGeometry width="160" relative="1" as="geometry">
            <mxPoint x="135" y="601" as="sourcePoint" />
            <mxPoint x="290" y="853" as="targetPoint" />
          </mxGeometry>
        </mxCell>
        <mxCell id="OZw_Fmp-zLQBNfYllk_t-44" value="Student" style="shape=umlActor;verticalLabelPosition=bottom;verticalAlign=top;html=1;outlineConnect=0;" vertex="1" parent="1">
          <mxGeometry x="-320" y="977" width="30" height="60" as="geometry" />
        </mxCell>
        <mxCell id="OZw_Fmp-zLQBNfYllk_t-45" value="School Admin" style="shape=umlActor;verticalLabelPosition=bottom;verticalAlign=top;html=1;outlineConnect=0;" vertex="1" parent="1">
          <mxGeometry x="590" y="610" width="30" height="60" as="geometry" />
        </mxCell>
        <mxCell id="OZw_Fmp-zLQBNfYllk_t-46" value="" style="endArrow=none;html=1;rounded=0;exitX=0.5;exitY=0.5;exitDx=0;exitDy=0;exitPerimeter=0;entryX=1;entryY=0.5;entryDx=0;entryDy=0;" edge="1" parent="1" source="OZw_Fmp-zLQBNfYllk_t-6" target="OZw_Fmp-zLQBNfYllk_t-16">
          <mxGeometry width="50" height="50" relative="1" as="geometry">
            <mxPoint x="775" y="600" as="sourcePoint" />
            <mxPoint x="356" y="420" as="targetPoint" />
          </mxGeometry>
        </mxCell>
        <mxCell id="OZw_Fmp-zLQBNfYllk_t-47" value="" style="endArrow=none;html=1;rounded=0;entryX=1;entryY=0.5;entryDx=0;entryDy=0;exitX=0.5;exitY=0.5;exitDx=0;exitDy=0;exitPerimeter=0;" edge="1" parent="1" source="OZw_Fmp-zLQBNfYllk_t-45" target="OZw_Fmp-zLQBNfYllk_t-30">
          <mxGeometry width="50" height="50" relative="1" as="geometry">
            <mxPoint x="775" y="280" as="sourcePoint" />
            <mxPoint x="276" y="580" as="targetPoint" />
          </mxGeometry>
        </mxCell>
        <mxCell id="OZw_Fmp-zLQBNfYllk_t-48" value="" style="endArrow=none;html=1;rounded=0;exitX=0.5;exitY=0.5;exitDx=0;exitDy=0;exitPerimeter=0;entryX=1;entryY=0.5;entryDx=0;entryDy=0;" edge="1" parent="1" source="OZw_Fmp-zLQBNfYllk_t-45" target="OZw_Fmp-zLQBNfYllk_t-31">
          <mxGeometry width="50" height="50" relative="1" as="geometry">
            <mxPoint x="775" y="280" as="sourcePoint" />
            <mxPoint x="276" y="410" as="targetPoint" />
          </mxGeometry>
        </mxCell>
        <mxCell id="OZw_Fmp-zLQBNfYllk_t-49" value="" style="endArrow=none;html=1;rounded=0;entryX=1;entryY=0.5;entryDx=0;entryDy=0;exitX=0.5;exitY=0.5;exitDx=0;exitDy=0;exitPerimeter=0;" edge="1" parent="1" source="OZw_Fmp-zLQBNfYllk_t-45" target="OZw_Fmp-zLQBNfYllk_t-23">
          <mxGeometry width="50" height="50" relative="1" as="geometry">
            <mxPoint x="775" y="280" as="sourcePoint" />
            <mxPoint x="280" y="440" as="targetPoint" />
          </mxGeometry>
        </mxCell>
        <mxCell id="OZw_Fmp-zLQBNfYllk_t-50" value="" style="endArrow=none;html=1;rounded=0;exitX=0.5;exitY=0.5;exitDx=0;exitDy=0;exitPerimeter=0;entryX=1;entryY=0.5;entryDx=0;entryDy=0;" edge="1" parent="1" source="OZw_Fmp-zLQBNfYllk_t-6" target="OZw_Fmp-zLQBNfYllk_t-17">
          <mxGeometry width="50" height="50" relative="1" as="geometry">
            <mxPoint x="775" y="220" as="sourcePoint" />
            <mxPoint x="440" y="320" as="targetPoint" />
          </mxGeometry>
        </mxCell>
        <mxCell id="OZw_Fmp-zLQBNfYllk_t-51" value="" style="endArrow=none;html=1;rounded=0;entryX=1;entryY=1;entryDx=0;entryDy=0;exitX=0.5;exitY=0.5;exitDx=0;exitDy=0;exitPerimeter=0;" edge="1" parent="1" source="OZw_Fmp-zLQBNfYllk_t-45" target="OZw_Fmp-zLQBNfYllk_t-21">
          <mxGeometry width="50" height="50" relative="1" as="geometry">
            <mxPoint x="750" y="720" as="sourcePoint" />
            <mxPoint x="290" y="680" as="targetPoint" />
          </mxGeometry>
        </mxCell>
        <mxCell id="OZw_Fmp-zLQBNfYllk_t-52" value="" style="endArrow=none;html=1;rounded=0;exitX=0;exitY=0.5;exitDx=0;exitDy=0;entryX=0.5;entryY=0.5;entryDx=0;entryDy=0;entryPerimeter=0;fontStyle=1;" edge="1" parent="1" source="OZw_Fmp-zLQBNfYllk_t-31" target="OZw_Fmp-zLQBNfYllk_t-7">
          <mxGeometry width="50" height="50" relative="1" as="geometry">
            <mxPoint x="-20" y="610" as="sourcePoint" />
            <mxPoint x="-295" y="610" as="targetPoint" />
          </mxGeometry>
        </mxCell>
        <mxCell id="OZw_Fmp-zLQBNfYllk_t-53" value="" style="endArrow=none;html=1;rounded=0;exitX=0;exitY=0.5;exitDx=0;exitDy=0;entryX=0.5;entryY=0.5;entryDx=0;entryDy=0;entryPerimeter=0;fontStyle=1;" edge="1" parent="1" source="OZw_Fmp-zLQBNfYllk_t-34" target="OZw_Fmp-zLQBNfYllk_t-7">
          <mxGeometry width="50" height="50" relative="1" as="geometry">
            <mxPoint x="270" y="667" as="sourcePoint" />
            <mxPoint x="-295" y="667" as="targetPoint" />
          </mxGeometry>
        </mxCell>
        <mxCell id="OZw_Fmp-zLQBNfYllk_t-54" value="" style="endArrow=none;html=1;rounded=0;entryX=1;entryY=0.5;entryDx=0;entryDy=0;exitX=0.5;exitY=0.5;exitDx=0;exitDy=0;exitPerimeter=0;" edge="1" parent="1" source="OZw_Fmp-zLQBNfYllk_t-45" target="OZw_Fmp-zLQBNfYllk_t-34">
          <mxGeometry width="50" height="50" relative="1" as="geometry">
            <mxPoint x="775" y="640" as="sourcePoint" />
            <mxPoint x="280" y="1017" as="targetPoint" />
          </mxGeometry>
        </mxCell>
        <mxCell id="OZw_Fmp-zLQBNfYllk_t-55" value="Visitor" style="shape=umlActor;verticalLabelPosition=bottom;verticalAlign=top;html=1;outlineConnect=0;" vertex="1" parent="1">
          <mxGeometry x="-320" y="130" width="30" height="60" as="geometry" />
        </mxCell>
        <mxCell id="OZw_Fmp-zLQBNfYllk_t-56" value="" style="endArrow=none;html=1;rounded=0;entryX=0.5;entryY=0.5;entryDx=0;entryDy=0;entryPerimeter=0;exitX=0;exitY=0.5;exitDx=0;exitDy=0;" edge="1" parent="1" source="OZw_Fmp-zLQBNfYllk_t-20" target="OZw_Fmp-zLQBNfYllk_t-55">
          <mxGeometry width="50" height="50" relative="1" as="geometry">
            <mxPoint x="-50" y="320" as="sourcePoint" />
            <mxPoint x="350" y="-960" as="targetPoint" />
          </mxGeometry>
        </mxCell>
        <mxCell id="OZw_Fmp-zLQBNfYllk_t-57" value="" style="endArrow=none;html=1;rounded=0;exitX=0;exitY=0.5;exitDx=0;exitDy=0;entryX=0.5;entryY=0.5;entryDx=0;entryDy=0;entryPerimeter=0;fontStyle=1;" edge="1" parent="1" source="OZw_Fmp-zLQBNfYllk_t-23" target="OZw_Fmp-zLQBNfYllk_t-7">
          <mxGeometry width="50" height="50" relative="1" as="geometry">
            <mxPoint x="-40" y="370" as="sourcePoint" />
            <mxPoint x="-295" y="667" as="targetPoint" />
          </mxGeometry>
        </mxCell>
        <mxCell id="OZw_Fmp-zLQBNfYllk_t-58" value="" style="endArrow=none;html=1;rounded=0;exitX=0.5;exitY=0.5;exitDx=0;exitDy=0;exitPerimeter=0;entryX=1;entryY=0.5;entryDx=0;entryDy=0;" edge="1" parent="1" source="OZw_Fmp-zLQBNfYllk_t-6" target="OZw_Fmp-zLQBNfYllk_t-23">
          <mxGeometry width="50" height="50" relative="1" as="geometry">
            <mxPoint x="615" y="340" as="sourcePoint" />
            <mxPoint x="424" y="170" as="targetPoint" />
          </mxGeometry>
        </mxCell>
      </root>
    </mxGraphModel>
  </diagram>
</mxfile>
